<svg width="260" height="66" viewBox="0 0 260 66" fill="none" xmlns="http://www.w3.org/2000/svg">
<path d="M33.2251 2.96208C49.926 2.96208 63.4653 16.3913 63.4653 32.9588C63.4653 49.5263 49.927 62.9556 33.2251 62.9556C16.5232 62.9556 2.98503 49.5263 2.98503 32.9588C2.98503 16.3913 16.5243 2.96208 33.2251 2.96208ZM33.2251 0C24.3502 0 16.0068 3.4282 9.7314 9.65308C3.45601 15.878 0 24.1542 0 32.9577C0 41.7613 3.45601 50.0375 9.7314 56.2624C16.0068 62.4873 24.3502 65.9155 33.2251 65.9155C42.1001 65.9155 50.4435 62.4873 56.7189 56.2624C62.9943 50.0375 66.4503 41.7613 66.4503 32.9577C66.4503 24.1542 62.9943 15.878 56.7189 9.65308C50.4435 3.4282 42.1001 0 33.2251 0Z" fill="url(#paint0_linear)"/>
<path d="M40.2693 44.3797C43.4286 45.8361 46.2642 45.8167 46.6811 45.806H46.7363L46.7352 45.8812L43.8303 48.7627C43.1742 49.4135 43.1742 50.4704 43.8303 51.1201C44.5276 51.8118 45.5518 51.771 46.2068 51.1201L52.0112 45.3624C52.5883 44.79 52.6879 43.9351 52.2299 43.267C52.1671 43.1725 52.0957 43.0823 52.0112 42.9996L46.2556 37.2902C45.5994 36.6394 44.534 36.6394 43.879 37.2902C43.1817 37.9819 43.2229 38.9979 43.879 39.6477L46.7265 42.4723L46.5793 42.4734C46.2512 42.4852 39.2807 42.6366 35.9395 35.473C35.5172 36.9745 34.977 38.2848 34.3577 39.4264C36.1734 42.0137 38.3929 43.5151 40.2693 44.3797Z" fill="#DDDDDD"/>
<path d="M34.179 29.9935C32.3005 24.5956 28.8207 21.9707 26.076 20.7056C23.2112 19.3846 20.6137 19.2772 19.8428 19.2772C19.7638 19.2772 19.7043 19.2782 19.6653 19.2793H15.6138C14.6859 19.2793 13.9334 20.0257 13.9334 20.9462C13.9334 21.8666 14.6859 22.613 15.6138 22.613L19.7681 22.6109C20.1417 22.599 29.0654 22.4025 31.5372 32.9202C31.7678 33.9018 32.0493 34.805 32.3676 35.6406C32.5734 35.0542 32.7574 34.4281 32.9155 33.7579C33.2446 32.3531 33.6766 31.1051 34.179 29.9935Z" fill="#DDDDDD"/>
<path d="M34.179 29.9935C33.6766 31.1051 33.2446 32.353 32.9144 33.7589C32.7574 34.4291 32.5733 35.0552 32.3665 35.6416C32.9263 37.1087 33.6062 38.3599 34.3555 39.4264C34.9748 38.2858 35.5151 36.9744 35.9373 35.473C35.4869 34.5085 35.1025 33.412 34.8091 32.164C34.6283 31.394 34.415 30.6733 34.179 29.9935Z" fill="#D2D2D2"/>
<path d="M52.0102 19.7229L46.2058 13.9652C45.5496 13.3143 44.5254 13.2735 43.8292 13.9652C43.1731 14.616 43.1731 15.6728 43.8292 16.3226L46.7341 19.2041L46.7352 19.2793H46.68C46.2631 19.2675 43.4275 19.2492 40.2682 20.7056C37.1781 22.1297 33.1548 25.2743 31.5361 32.164C29.0643 42.6828 20.1406 42.4862 19.767 42.4733L15.6127 42.4712C14.6848 42.4712 13.9323 43.2176 13.9323 44.138C13.9323 45.0584 14.6848 45.8049 15.6127 45.8049H19.6642C19.7032 45.8059 19.7627 45.807 19.8417 45.807C20.6126 45.807 23.2101 45.6996 26.0749 44.3786C29.165 42.9545 33.1883 39.8098 34.807 32.9201C37.2788 22.4014 46.2036 22.5969 46.576 22.6108L46.7233 22.6119L43.8758 25.4365C43.2196 26.0874 43.1785 27.1034 43.8758 27.7939C44.5319 28.4448 45.5973 28.4448 46.2523 27.7939L52.008 22.0846C52.0914 22.0019 52.1639 21.9117 52.2267 21.8172C52.6879 21.1491 52.5872 20.2942 52.0102 19.7229Z" fill="url(#paint1_linear)"/>
<path d="M100.471 25.211C100.4 24.9983 100.4 24.9285 100.4 24.8222C100.4 24.2562 100.863 23.7955 101.435 23.7955C101.898 23.7955 102.291 24.079 102.434 24.5387L107.036 40.1439L111.53 25.211C111.601 24.9983 111.923 23.7955 113.349 23.7955C114.17 23.7955 114.883 24.326 115.133 25.1401L119.628 40.1439L124.229 24.5387C124.372 24.079 124.8 23.7955 125.227 23.7955C125.798 23.7955 126.263 24.2551 126.263 24.8222C126.263 24.8931 126.263 25.0349 126.227 25.1047L121.411 41.4176C121.161 42.2671 120.412 42.6914 119.628 42.6914C118.878 42.6914 118.093 42.2671 117.843 41.4176L113.349 26.3784L108.855 41.3467C108.783 41.5594 108.427 42.6914 107.036 42.6914C106.322 42.6914 105.501 42.2671 105.252 41.4176L100.471 25.211Z" fill="#DDDDDD"/>
<path d="M132.884 17.5674C133.705 17.5674 134.383 18.2751 134.383 19.0892C134.383 19.9033 133.705 20.5756 132.884 20.5756C132.028 20.5756 131.35 19.9033 131.35 19.0892C131.35 18.2751 132.028 17.5674 132.884 17.5674ZM133.918 41.524V24.8212C133.918 24.2552 133.455 23.7944 132.884 23.7944C132.278 23.7944 131.849 24.2541 131.849 24.8212V41.5229C131.849 42.0889 132.277 42.5496 132.884 42.5496C133.455 42.5507 133.918 42.09 133.918 41.524Z" fill="#DDDDDD"/>
<path d="M150.414 41.7011C150.414 42.1253 150.129 42.5506 149.665 42.6924C148.987 42.9051 148.167 43.0114 147.382 43.0114C144.064 43.0114 142.423 41.3134 142.423 37.9507V25.8479H140.568C139.998 25.8479 139.534 25.3882 139.534 24.8222C139.534 24.2562 139.998 23.7955 140.568 23.7955H142.423V18.665C142.423 18.099 142.886 17.6382 143.458 17.6382C144.029 17.6382 144.492 18.0979 144.492 18.665V23.7955H148.773C149.344 23.7955 149.807 24.2551 149.807 24.8222C149.807 25.3882 149.344 25.8479 148.773 25.8479H144.492V37.9496C144.492 40.0729 145.134 40.9579 147.346 40.9579C148.417 40.9579 149.059 40.7098 149.379 40.7098C149.986 40.7098 150.414 41.1351 150.414 41.7011Z" fill="#DDDDDD"/>
<path d="M154.998 36.7823V29.5628C154.998 25.1036 158.993 23.3347 163.488 23.3347C165.736 23.3347 167.911 23.8298 169.803 24.8211C170.159 24.9983 170.337 25.3517 170.337 25.7415C170.337 26.3075 169.873 26.7328 169.302 26.7328C168.981 26.7328 168.839 26.6265 168.197 26.3441C166.77 25.7072 165.164 25.3882 163.488 25.3882C160.277 25.3882 157.067 26.3441 157.067 29.5639V36.7833C157.067 39.9677 160.277 40.959 163.524 40.959C165.307 40.959 167.056 40.5702 168.554 39.827C168.84 39.6853 169.053 39.6144 169.339 39.6144C169.91 39.6144 170.374 40.0386 170.374 40.6057C170.374 40.9955 170.16 41.3489 169.804 41.5261C167.949 42.5174 165.773 43.0125 163.525 43.0125C158.173 43.0104 154.998 40.6744 154.998 36.7823Z" fill="#DDDDDD"/>
<path d="M192.723 30.1643V41.5229C192.723 42.0889 192.259 42.5496 191.689 42.5496C191.118 42.5496 190.654 42.09 190.654 41.5229V30.1643C190.654 26.909 189.155 25.3872 185.766 25.3872C183.019 25.3872 180.058 26.4128 178.096 28.041V41.5229C178.096 42.0889 177.632 42.5496 177.061 42.5496C176.491 42.5496 176.027 42.09 176.027 41.5229V16.3645C176.027 15.7985 176.491 15.3389 177.061 15.3389C177.632 15.3389 178.096 15.7985 178.096 16.3645V25.6707C180.273 24.2197 182.984 23.3358 185.766 23.3358C190.296 23.3358 192.723 25.7416 192.723 30.1643Z" fill="#DDDDDD"/>
<path d="M87.6844 41.219C91.7348 41.219 94.4924 39.0387 94.4924 35.4484C94.4924 32.6699 92.6822 31.046 89.5802 29.8485L85.0989 28.0958C81.0052 26.5138 78.5063 24.7621 78.5063 20.7013C78.5063 16.256 82.2124 13.2639 87.6844 13.2639C90.8296 13.2639 93.4151 14.1188 95.1388 15.4011C95.4409 15.6148 95.6986 15.9145 95.6986 16.299C95.6986 16.9831 95.0522 17.4954 94.578 17.4954C94.2759 17.4954 94.0604 17.3676 93.7594 17.1539C92.4234 16.1712 90.6564 15.4011 87.6833 15.4011C83.6762 15.4011 80.9175 17.5384 80.9175 20.7013C80.9175 23.4368 82.6845 24.6762 85.873 25.9166L90.3543 27.6694C94.2326 29.1655 96.9047 31.6872 96.9047 35.4494C96.9047 40.3222 93.0698 43.3573 87.6833 43.3573C83.7617 43.3573 80.401 41.9042 78.3753 39.8517C78.1598 39.638 77.9877 39.2965 77.9877 39.0398C77.9877 38.5264 78.6341 37.8434 79.2371 37.8434C79.4959 37.8434 79.7113 37.9712 79.9268 38.1849C81.5227 39.8088 83.7206 41.219 87.6844 41.219Z" fill="#DDDDDD"/>
<path d="M217.427 38.781C215.962 41.2598 213.807 42.7558 208.809 42.7558H199.457C198.897 42.7558 198.423 42.5421 198.423 41.9009V13.861C198.423 13.2198 198.897 13.0061 199.457 13.0061H208.809C213.807 13.0061 215.962 14.5022 217.427 16.981C219.151 19.9302 219.323 23.948 219.323 27.881C219.323 31.814 219.151 35.8318 217.427 38.781ZM208.809 40.6186C212.859 40.6186 214.367 39.5929 215.444 37.6694C216.866 35.1476 216.953 31.4714 216.953 27.881C216.953 24.2906 216.866 20.6143 215.444 18.0926C214.367 16.169 212.859 15.1434 208.809 15.1434H201.224C200.922 15.1434 200.836 15.2293 200.836 15.5279V40.2341C200.836 40.5337 200.923 40.6186 201.224 40.6186H208.809Z" fill="#DDDDDD"/>
<path d="M237.809 38.9088C238.412 38.9088 238.886 39.507 238.886 40.0633C238.886 40.32 238.627 40.6616 238.283 40.8753C236.516 42.0298 234.103 42.9266 231.475 42.9266C224.365 42.9266 222.9 39.1225 222.9 32.497C222.9 26.6405 224.064 22.0674 231.174 22.0674C237.035 22.0674 239.275 25.2733 239.275 31.0009C239.275 32.2833 239.016 33.5227 237.249 33.5227H225.399C225.14 33.5227 225.054 33.6505 225.054 33.8223C225.183 38.4813 226.175 40.9601 231.777 40.9601C233.328 40.9601 234.922 40.4897 236.604 39.55C237.119 39.2514 237.507 38.9088 237.809 38.9088ZM231.172 23.991C226.303 23.991 225.052 26.7264 225.052 31.1717C225.052 31.3854 225.096 31.5562 225.397 31.5562H236.945C237.117 31.5562 237.247 31.5132 237.247 31.2995C237.248 27.069 236.3 23.991 231.172 23.991Z" fill="#DDDDDD"/>
<path d="M251.124 33.7794L244.445 42.5851C244.229 42.8418 244.014 42.9266 243.799 42.9266C243.411 42.9266 242.678 42.4992 242.678 41.9439C242.678 41.7731 242.765 41.5594 242.893 41.3886L249.917 32.1555C250.003 32.0277 250.003 31.9847 250.003 31.8988C250.003 31.8129 250.003 31.771 249.917 31.6421L243.884 23.6065C243.755 23.4357 243.712 23.265 243.712 23.0931C243.712 22.6227 244.315 22.0674 244.833 22.0674C245.048 22.0674 245.263 22.1104 245.479 22.3671L251.124 30.0182C251.211 30.146 251.211 30.2749 251.339 30.2749C251.468 30.2749 251.468 30.1471 251.555 30.0182L257.2 22.3671C257.416 22.1104 257.631 22.0674 257.846 22.0674C258.364 22.0674 258.967 22.6227 258.967 23.0931C258.967 23.2639 258.924 23.4346 258.795 23.6065L252.762 31.6421C252.676 31.7699 252.676 31.8129 252.676 31.8988C252.676 31.9847 252.676 32.0266 252.762 32.1555L259.786 41.3886C259.914 41.5594 260.001 41.7731 260.001 41.9439C260.001 42.4992 259.268 42.9266 258.88 42.9266C258.665 42.9266 258.45 42.8407 258.234 42.5851L251.555 33.7794C251.468 33.6516 251.468 33.5227 251.339 33.5227C251.21 33.5238 251.21 33.6516 251.124 33.7794Z" fill="#DDDDDD"/>
<defs>
<linearGradient id="paint0_linear" x1="0" y1="32.9579" x2="66.4506" y2="32.9579" gradientUnits="userSpaceOnUse">
<stop stop-color="#25E8CE"/>
<stop offset="0.52" stop-color="#2269FF"/>
<stop offset="0.8692" stop-color="#6D00F5"/>
</linearGradient>
<linearGradient id="paint1_linear" x1="13.9334" y1="29.6349" x2="52.5172" y2="29.6349" gradientUnits="userSpaceOnUse">
<stop stop-color="#25E8CE"/>
<stop offset="0.5162" stop-color="#2269FF"/>
<stop offset="1" stop-color="#6D00F5"/>
</linearGradient>
</defs>
</svg>
